<svg width="1734" height="1364" viewBox="0 0 1734 1364" fill="none" xmlns="http://www.w3.org/2000/svg">
<g clip-path="url(#clip0_898_2)">
<path d="M1097.37 568.492C1068.05 537.957 1032.9 513.6 994.018 496.857C955.566 480.253 914.125 471.688 872.241 471.688C830.358 471.688 788.917 480.253 750.465 496.857C711.579 513.601 676.437 537.957 647.11 568.492C583.781 634.101 548.907 725.845 548.907 826.826C548.907 930.363 584.063 1040.1 645.364 1127.9C709.162 1219.28 791.858 1271.69 872.242 1271.69C952.627 1271.69 1035.32 1219.28 1099.12 1127.9C1160.42 1040.1 1195.58 930.365 1195.58 826.828C1195.58 725.845 1160.7 634.101 1097.37 568.492ZM1070.6 1107.99C1013.4 1189.92 941.101 1236.91 872.242 1236.91C803.383 1236.91 731.084 1189.92 673.882 1107.99C617.406 1027.1 583.689 921.989 583.689 826.826C583.689 618.748 732.359 506.471 872.242 506.471C1012.13 506.471 1160.8 618.748 1160.8 826.826C1160.8 921.989 1127.08 1027.1 1070.6 1107.99Z" fill="#FF0000" stroke="#FF0000" stroke-width="1.73913" stroke-miterlimit="6.95652"/>
<path d="M852.795 907.899C851.705 906.998 742.83 816.591 664.698 717.142C662.666 714.556 659.943 712.599 656.844 711.498C653.744 710.397 650.397 710.198 647.189 710.923C643.981 711.648 641.044 713.268 638.72 715.594C636.395 717.921 634.778 720.859 634.056 724.067C622.353 776.066 623.74 835.447 637.861 886.984C656.053 953.368 694.24 1003.15 748.3 1030.96C751.573 1032.64 755.295 1033.24 758.932 1032.67C762.568 1032.11 765.931 1030.4 768.536 1027.8C770.867 1025.48 825.964 970.405 855.512 931.888C858.253 928.316 859.502 923.82 858.995 919.345C858.489 914.871 856.266 910.768 852.795 907.899ZM753.192 993.833C674.355 945.579 655.632 844.801 662.291 769.026C722.289 839.246 789.651 899.521 817.571 923.62C796.312 949.194 767.682 979.015 753.192 993.833Z" fill="#FF0000" stroke="#FF0000" stroke-width="1.73913" stroke-miterlimit="6.95652"/>
<path d="M1110.43 724.068C1109.71 720.86 1108.09 717.922 1105.76 715.595C1103.44 713.269 1100.5 711.649 1097.3 710.924C1094.09 710.199 1090.74 710.398 1087.64 711.499C1084.54 712.6 1081.82 714.557 1079.79 717.143C1001.73 816.494 892.781 906.998 891.689 907.901C888.22 910.77 885.998 914.873 885.491 919.347C884.984 923.82 886.232 928.316 888.971 931.889C918.519 970.405 973.614 1025.48 975.947 1027.8C978.552 1030.4 981.914 1032.11 985.55 1032.67C989.186 1033.24 992.909 1032.64 996.181 1030.96C1050.24 1003.15 1088.43 953.367 1106.62 886.984C1120.74 835.449 1122.13 776.068 1110.43 724.068ZM991.291 993.835C976.806 979.021 948.178 949.204 926.914 923.621C954.827 899.527 1022.19 839.254 1082.19 769.028C1088.85 844.804 1070.13 945.581 991.291 993.835Z" fill="#FF0000" stroke="#FF0000" stroke-width="1.73913" stroke-miterlimit="6.95652"/>
<mask id="mask0_898_2" style="mask-type:luminance" maskUnits="userSpaceOnUse" x="-90" y="-58" width="1884" height="1924">
<path d="M-80.3508 -57.4131L-89.4634 1856.38L1784.84 1865.3L1793.95 -48.4885L-80.3508 -57.4131ZM1120.94 1145.21C1051.36 1243.87 960.017 1300.21 870.358 1299.78C780.689 1299.35 689.9 1242.15 621.262 1142.83C557.203 1050.14 520.754 934.38 521.273 825.252C521.789 716.973 559.928 618.503 628.655 547.98C660.718 514.92 699.075 488.612 741.464 470.606C783.496 452.697 828.746 443.571 874.434 443.789C920.121 444.006 965.282 453.563 1007.14 471.871C1049.36 490.28 1087.46 516.952 1119.21 550.316C1187.26 621.49 1224.46 720.319 1223.95 828.597C1223.43 937.726 1185.88 1053.13 1120.94 1145.21Z" fill="white"/>
</mask>
<g mask="url(#mask0_898_2)">
<path d="M875.439 867.814C872.573 867.988 869.697 867.688 866.928 866.928C855.472 863.765 849.519 853.499 853.632 843.998L903.287 729.299L836.527 614.541L889.271 492.708L822.512 377.959L875.257 256.129L808.497 141.379L864.334 12.4096C868.448 2.90778 881.069 -2.22999 892.525 0.933387C903.981 4.09609 909.934 14.3618 905.82 23.863L856.166 138.555L922.926 253.305L870.18 375.135L936.94 489.884L884.194 611.717L950.954 726.475L895.12 855.451C892.017 862.618 884.072 867.302 875.439 867.814Z" fill="white"/>
<path d="M874.742 912.44C872.346 914.023 869.706 915.202 866.928 915.928C855.425 918.917 845.137 913.003 843.948 902.718L829.601 778.558L714.406 712.555L699.168 580.673L583.978 514.677L568.741 382.796L453.551 316.799L437.422 177.191C436.234 166.905 444.595 156.145 456.098 153.157C467.601 150.167 477.889 156.081 479.077 166.366L493.421 290.52L608.612 356.516L623.848 488.397L739.038 554.393L754.275 686.276L869.471 752.279L885.604 891.893C886.501 899.651 881.962 907.68 874.742 912.44Z" fill="white"/>
<path d="M871.95 909.001C870.668 911.57 868.971 913.91 866.928 915.928C858.461 924.269 846.593 924.291 840.422 915.978L765.917 815.626L633.153 816.063L554.015 709.469L421.26 709.91L342.124 603.316L209.368 603.757L125.596 490.916C119.424 482.602 121.285 469.103 129.753 460.764C138.22 452.424 150.087 452.401 156.258 460.715L230.757 561.062L363.513 560.622L442.649 667.215L575.404 666.774L654.541 773.37L787.305 772.933L871.084 885.775C875.739 892.046 875.824 901.269 871.95 909.001Z" fill="white"/>
<path d="M867.814 907.417C867.988 910.283 867.688 913.158 866.928 915.928C863.765 927.384 853.499 933.337 843.998 929.224L729.299 879.569L614.541 946.329L492.708 893.585L377.959 960.344L256.129 907.599L141.379 974.359L12.4096 918.522C2.90778 914.408 -2.23 901.787 0.933391 890.331C4.09609 878.875 14.3618 872.922 23.8629 877.036L138.555 926.69L253.305 859.93L375.135 912.675L489.884 845.916L611.717 898.661L726.475 831.901L855.451 887.736C862.618 890.839 867.302 898.784 867.814 907.417Z" fill="white"/>
<path d="M863.44 908.115C865.023 910.51 866.202 913.15 866.928 915.928C869.917 927.431 864.003 937.72 853.718 938.908L729.558 953.255L663.555 1068.45L531.673 1083.69L465.677 1198.88L333.796 1214.12L267.799 1329.31L128.191 1345.43C117.905 1346.62 107.145 1338.26 104.157 1326.76C101.167 1315.26 107.081 1304.97 117.366 1303.78L241.52 1289.44L307.516 1174.24L439.397 1159.01L505.393 1043.82L637.276 1028.58L703.279 913.386L842.893 897.252C850.651 896.356 858.68 900.894 863.44 908.115Z" fill="white"/>
<path d="M850.906 908.856C852.188 906.287 853.885 903.946 855.928 901.928C864.395 893.588 876.263 893.565 882.434 901.878L956.939 1002.23L1089.7 1001.79L1168.84 1108.39L1301.6 1107.95L1380.73 1214.54L1513.49 1214.1L1597.26 1326.94C1603.43 1335.25 1601.57 1348.75 1593.1 1357.09C1584.64 1365.43 1572.77 1365.46 1566.6 1357.14L1492.1 1256.79L1359.34 1257.23L1280.21 1150.64L1147.45 1151.08L1068.31 1044.49L935.551 1044.92L851.772 932.081C847.117 925.811 847.032 916.588 850.906 908.856Z" fill="white"/>
<path d="M866.042 924.439C865.868 921.573 866.168 918.697 866.928 915.928C870.091 904.472 880.357 898.519 889.858 902.632L1004.56 952.287L1119.32 885.527L1241.15 938.271L1355.9 871.511L1477.73 924.257L1592.48 857.497L1721.45 913.333C1730.95 917.447 1736.09 930.069 1732.92 941.525C1729.76 952.981 1719.49 958.934 1709.99 954.82L1595.3 905.166L1480.55 971.926L1358.72 919.18L1243.97 985.94L1122.14 933.194L1007.38 999.954L878.405 944.12C871.238 941.017 866.553 933.072 866.042 924.439Z" fill="white"/>
<path d="M870.416 923.742C868.833 921.346 867.654 918.706 866.928 915.928C863.939 904.425 869.853 894.137 880.138 892.948L1004.3 878.601L1070.3 763.406L1202.18 748.168L1268.18 632.978L1400.06 617.741L1466.06 502.551L1605.67 486.422C1615.95 485.234 1626.71 493.595 1629.7 505.098C1632.69 516.601 1626.77 526.889 1616.49 528.077L1492.34 542.421L1426.34 657.612L1294.46 672.848L1228.46 788.039L1096.58 803.276L1030.58 918.471L890.963 934.604C883.205 935.501 875.176 930.962 870.416 923.742Z" fill="white"/>
<path d="M873.856 920.95C871.287 919.668 868.946 917.971 866.928 915.928C858.588 907.461 858.565 895.593 866.878 889.422L967.23 814.917L966.793 682.153L1073.39 603.015L1072.95 470.26L1179.54 391.124L1179.1 258.368L1291.94 174.596C1300.25 168.424 1313.75 170.285 1322.09 178.753C1330.43 187.22 1330.46 199.087 1322.14 205.258L1221.79 279.757L1222.23 412.513L1115.64 491.649L1116.08 624.404L1009.49 703.542L1009.92 836.305L897.081 920.084C890.811 924.739 881.588 924.824 873.856 920.95Z" fill="white"/>
</g>
</g>
<defs>
<clipPath id="clip0_898_2">
<rect width="1733.86" height="1363.36" fill="white"/>
</clipPath>
</defs>
</svg>
